<svg width="12" height="12" viewBox="0 0 12 12" fill="none" xmlns="http://www.w3.org/2000/svg">
<rect width="12" height="12" rx="3" fill="white"/>
<path d="M6 2C4.91333 2 4.77767 2.005 4.351 2.024C3.925 2.044 3.635 2.111 3.38 2.21C3.117 2.312 2.89367 2.449 2.67133 2.67133C2.449 2.89367 2.31167 3.11667 2.21 3.38C2.111 3.635 2.04367 3.925 2.024 4.351C2.004 4.77767 2 4.91333 2 6C2 7.08667 2.005 7.22233 2.024 7.649C2.044 8.07467 2.111 8.365 2.21 8.62C2.312 8.88267 2.449 9.10633 2.67133 9.32866C2.89367 9.55066 3.11667 9.68833 3.38 9.79C3.63533 9.88867 3.92533 9.95633 4.351 9.976C4.77767 9.996 4.91333 10 6 10C7.08667 10 7.22233 9.995 7.649 9.976C8.07467 9.956 8.365 9.88867 8.62 9.79C8.88267 9.688 9.10633 9.55066 9.32867 9.32866C9.55067 9.10633 9.68833 8.88367 9.79 8.62C9.88867 8.365 9.95633 8.07467 9.976 7.649C9.996 7.22233 10 7.08667 10 6C10 4.91333 9.995 4.77767 9.976 4.351C9.956 3.92533 9.88867 3.63467 9.79 3.38C9.688 3.117 9.55067 2.89367 9.32867 2.67133C9.10633 2.449 8.88367 2.31167 8.62 2.21C8.365 2.111 8.07467 2.04367 7.649 2.024C7.22233 2.004 7.08667 2 6 2ZM6 2.72C7.06767 2.72 7.195 2.72533 7.61667 2.74367C8.00667 2.762 8.21833 2.82667 8.359 2.882C8.54633 2.95433 8.679 3.041 8.81967 3.18067C8.95933 3.32067 9.046 3.45367 9.11833 3.641C9.173 3.78167 9.23833 3.99333 9.256 4.38333C9.275 4.80533 9.27933 4.932 9.27933 6C9.27933 7.068 9.27433 7.195 9.25467 7.61667C9.23433 8.00667 9.16933 8.21833 9.11433 8.359C9.03967 8.54633 8.95467 8.679 8.81467 8.81966C8.675 8.95933 8.54 9.046 8.35467 9.11833C8.21467 9.173 7.99967 9.23833 7.60967 9.256C7.185 9.275 7.06 9.27933 5.99 9.27933C4.91967 9.27933 4.79467 9.27433 4.37033 9.25466C3.98 9.23433 3.765 9.16933 3.625 9.11433C3.43533 9.03967 3.305 8.95467 3.16533 8.81467C3.025 8.675 2.93533 8.54 2.86533 8.35466C2.81033 8.21466 2.74567 7.99967 2.72533 7.60967C2.71033 7.18967 2.705 7.06 2.705 5.995C2.705 4.92967 2.71033 4.79967 2.72533 4.37467C2.74567 3.98467 2.81033 3.77 2.86533 3.63C2.93533 3.44 3.025 3.31 3.16533 3.16967C3.305 3.03 3.43533 2.94 3.625 2.87033C3.765 2.815 3.97533 2.75 4.36533 2.73C4.79033 2.715 4.91533 2.71 5.985 2.71L6 2.72ZM6 3.946C4.865 3.946 3.946 4.866 3.946 6C3.946 7.135 4.866 8.054 6 8.054C7.135 8.054 8.054 7.134 8.054 6C8.054 4.865 7.134 3.946 6 3.946ZM6 7.33333C5.26333 7.33333 4.66667 6.73667 4.66667 6C4.66667 5.26333 5.26333 4.66667 6 4.66667C6.73667 4.66667 7.33333 5.26333 7.33333 6C7.33333 6.73667 6.73667 7.33333 6 7.33333ZM8.61533 3.865C8.61533 4.13 8.4 4.345 8.13533 4.345C7.87033 4.345 7.65533 4.12967 7.65533 3.865C7.65533 3.60033 7.87067 3.38533 8.13533 3.38533C8.39967 3.385 8.61533 3.60033 8.61533 3.865Z" fill="#172554"/>
</svg>
