<svg width="12" height="12" viewBox="0 0 12 12" fill="none" xmlns="http://www.w3.org/2000/svg">
<rect width="12" height="12" rx="3" fill="white"/>
<path d="M6.17496 2.00667C6.61163 2 7.04496 2.00333 7.47829 2C7.50496 2.51 7.68829 3.03 8.06163 3.39C8.43496 3.76 8.96163 3.93 9.47496 3.98667V5.33C8.99496 5.31333 8.51163 5.21333 8.07496 5.00667C7.88496 4.92 7.70829 4.81 7.53496 4.69667C7.53163 5.67 7.53829 6.64333 7.52829 7.61333C7.50163 8.08 7.34829 8.54333 7.07829 8.92667C6.64163 9.56667 5.88496 9.98333 5.10829 9.99667C4.63163 10.0233 4.15496 9.89333 3.74829 9.65333C3.07496 9.25667 2.60163 8.53 2.53163 7.75C2.52496 7.58333 2.52163 7.41667 2.52829 7.25333C2.58829 6.62 2.90163 6.01333 3.38829 5.6C3.94163 5.12 4.71496 4.89 5.43829 5.02667C5.44496 5.52 5.42496 6.01333 5.42496 6.50667C5.09496 6.4 4.70829 6.43 4.41829 6.63C4.20829 6.76667 4.04829 6.97667 3.96496 7.21333C3.89496 7.38333 3.91496 7.57 3.91829 7.75C3.99829 8.29667 4.52496 8.75667 5.08496 8.70667C5.45829 8.70333 5.81496 8.48667 6.00829 8.17C6.07163 8.06 6.14163 7.94667 6.14496 7.81667C6.17829 7.22 6.16496 6.62667 6.16829 6.03C6.17163 4.68667 6.16496 3.34667 6.17496 2.00667Z" fill="#172554"/>
</svg>
