<svg width="600" height="472" viewBox="0 0 600 472" fill="none" xmlns="http://www.w3.org/2000/svg">
<path d="M299.999 188.434C351.939 188.434 394.054 146.319 394.054 94.375C394.054 42.44 351.939 0.325195 299.999 0.325195C248.06 0.325195 205.951 42.4388 205.951 94.375C205.95 146.319 248.058 188.434 299.999 188.434Z" fill="#0EA5E9"/>
<path d="M507.31 230.692C546.033 230.692 577.43 199.294 577.43 160.561C577.43 121.838 546.033 90.4409 507.31 90.4409C468.585 90.4409 437.179 121.838 437.179 160.561C437.179 199.294 468.585 230.692 507.31 230.692Z" fill="#0EA5E9"/>
<path d="M508.105 246.81C481.144 246.81 460.525 255.202 445.614 266.4C448.771 273.306 451.008 279.979 452.323 286.106L452.968 289.121V441.876H519.1C563.781 441.876 600 405.657 600 360.976V308.065C595.168 285.509 566.141 246.81 508.105 246.81Z" fill="#0EA5E9"/>
<path d="M92.6904 90.4399C53.9624 90.4399 22.5691 121.837 22.5691 160.56C22.5691 199.293 53.9624 230.691 92.6904 230.691C131.419 230.691 162.816 199.293 162.816 160.56C162.816 121.838 131.419 90.4399 92.6904 90.4399Z" fill="#0EA5E9"/>
<path d="M0 308.067V360.978C0 405.66 36.2191 441.879 80.9002 441.879H147.031V289.121L147.676 286.107C148.991 279.98 151.231 273.306 154.386 266.401C139.469 255.203 118.851 246.811 91.8948 246.811C33.8577 246.81 4.83515 285.509 0 308.067Z" fill="#0EA5E9"/>
<path d="M299.999 210.055C222.164 210.055 183.247 261.946 176.757 292.216V427.548C176.757 451.913 196.517 471.675 220.884 471.675H379.115C403.482 471.675 423.242 451.915 423.242 427.548V292.216C416.757 261.946 377.836 210.055 299.999 210.055Z" fill="#0EA5E9"/>
</svg>
