<svg width="25" height="20" viewBox="0 0 25 20" fill="none" xmlns="http://www.w3.org/2000/svg">
<path d="M12.3996 8.0976C14.4772 8.0976 16.1618 6.41301 16.1618 4.33524C16.1618 2.25783 14.4772 0.573242 12.3996 0.573242C10.3221 0.573242 8.6377 2.25779 8.6377 4.33524C8.63765 6.41301 10.322 8.0976 12.3996 8.0976Z" fill="#0EA5E9"/>
<path d="M20.6924 9.78777C22.2414 9.78777 23.4972 8.53185 23.4972 6.98254C23.4972 5.43361 22.2414 4.17773 20.6924 4.17773C19.1435 4.17773 17.8872 5.43361 17.8872 6.98254C17.8872 8.53185 19.1435 9.78777 20.6924 9.78777Z" fill="#0EA5E9"/>
<path d="M20.7243 10.4326C19.6458 10.4326 18.821 10.7683 18.2246 11.2162C18.3509 11.4925 18.4404 11.7594 18.493 12.0045L18.5187 12.125V18.2353H21.164C22.9513 18.2353 24.4001 16.7865 24.4001 14.9993V12.8828C24.2068 11.9806 23.0457 10.4326 20.7243 10.4326Z" fill="#0EA5E9"/>
<path d="M4.10759 4.17773C2.55847 4.17773 1.30273 5.43361 1.30273 6.98254C1.30273 8.53185 2.55847 9.78777 4.10759 9.78777C5.65671 9.78777 6.91263 8.53185 6.91263 6.98254C6.91263 5.43365 5.65671 4.17773 4.10759 4.17773Z" fill="#0EA5E9"/>
<path d="M0.399902 12.8829V14.9993C0.399902 16.7866 1.84867 18.2353 3.63591 18.2353H6.28116V12.125L6.30694 12.0045C6.35953 11.7594 6.44916 11.4924 6.57534 11.2162C5.97867 10.7683 5.15396 10.4326 4.07569 10.4326C1.75421 10.4326 0.593308 11.9805 0.399902 12.8829Z" fill="#0EA5E9"/>
<path d="M12.3999 8.9624C9.28648 8.9624 7.72981 11.038 7.47021 12.2488V17.6621C7.47021 18.6367 8.26062 19.4272 9.23529 19.4272H15.5645C16.5392 19.4272 17.3296 18.6368 17.3296 17.6621V12.2488C17.0702 11.038 15.5134 8.9624 12.3999 8.9624Z" fill="#0EA5E9"/>
</svg>
