<svg width="25" height="16" viewBox="0 0 25 16" fill="none" xmlns="http://www.w3.org/2000/svg">
<path fill-rule="evenodd" clip-rule="evenodd" d="M4.05036 2.05209V3.30426H2.79818C2.30004 3.30426 1.82229 3.50215 1.47005 3.85439C1.11781 4.20663 0.919922 4.68438 0.919922 5.18252V13.9477C0.919922 14.4459 1.11781 14.9236 1.47005 15.2759C1.82229 15.6281 2.30004 15.826 2.79818 15.826H19.9112C20.1579 15.826 20.4021 15.7774 20.63 15.683C20.8579 15.5886 21.0649 15.4503 21.2394 15.2759C21.4138 15.1015 21.5521 14.8944 21.6465 14.6665C21.7409 14.4386 21.7895 14.1944 21.7895 13.9477V12.6956H23.0417C24.0768 12.6956 24.9199 11.8524 24.9199 10.8173V2.05209C24.9199 1.01696 24.0768 0.173828 23.0417 0.173828H5.92862C4.89349 0.173828 4.05036 1.01696 4.05036 2.05209ZM6.13731 2.26078V3.30426H19.9112C20.1579 3.30426 20.4021 3.35285 20.63 3.44724C20.8579 3.54163 21.0649 3.67998 21.2394 3.85439C21.4138 4.0288 21.5521 4.23586 21.6465 4.46374C21.7409 4.69163 21.7895 4.93587 21.7895 5.18252V10.6086H22.833V2.26078H6.13731ZM9.26775 9.56513C9.26775 9.01164 9.48762 8.48081 9.879 8.08943C10.2704 7.69805 10.8012 7.47818 11.3547 7.47818C11.9082 7.47818 12.439 7.69805 12.8304 8.08943C13.2218 8.48081 13.4417 9.01164 13.4417 9.56513C13.4417 10.1186 13.2218 10.6495 12.8304 11.0408C12.439 11.4322 11.9082 11.6521 11.3547 11.6521C10.8012 11.6521 10.2704 11.4322 9.879 11.0408C9.48762 10.6495 9.26775 10.1186 9.26775 9.56513Z" fill="#06B6D4"/>
</svg>
