<svg width="25" height="22" viewBox="0 0 25 22" fill="none" xmlns="http://www.w3.org/2000/svg">
<path fill-rule="evenodd" clip-rule="evenodd" d="M3.09131 20.0986C3.09131 19.3894 3.66623 18.8145 4.37542 18.8145H19.7848C20.494 18.8145 21.0689 19.3894 21.0689 20.0986C21.0689 20.8078 20.494 21.3827 19.7848 21.3827H4.37542C3.66623 21.3827 3.09131 20.8078 3.09131 20.0986Z" fill="#0EA5E9"/>
<path fill-rule="evenodd" clip-rule="evenodd" d="M9.35605 1.74502C10.8604 0.240592 13.2996 0.240592 14.8041 1.74502L18.0997 5.04067C18.4906 5.43151 19.0876 5.52839 19.582 5.28121L20.4946 4.82493C22.4656 3.83944 24.6441 5.72889 23.9473 7.81944L21.5883 14.8964C21.064 16.4694 19.5919 17.5305 17.9337 17.5305H6.22646C4.5683 17.5305 3.09616 16.4694 2.57181 14.8964L0.212839 7.81944C-0.484011 5.72891 1.69457 3.83944 3.66555 4.82493L4.57812 5.28121C5.07249 5.52839 5.66956 5.43151 6.0604 5.04067L9.35605 1.74502Z" fill="#0EA5E9"/>
</svg>
