<svg width="25" height="24" viewBox="0 0 25 24" fill="none" xmlns="http://www.w3.org/2000/svg">
<path d="M23.8915 13.9336C23.6691 13.5756 23.3542 13.2836 22.98 13.0897C22.9009 13.048 22.8145 13.0103 22.7223 12.976H22.7091C22.6001 12.976 22.4958 12.9431 22.408 12.8821C22.2438 12.8461 22.0752 12.8279 21.9059 12.8279C21.3669 12.8279 20.8612 13.0062 20.4429 13.3434C20.3491 13.4191 20.2313 13.4608 20.1108 13.4608C19.9496 13.4608 19.7993 13.3892 19.6983 13.264C19.6095 13.1539 19.5687 13.016 19.5839 12.8753C19.5987 12.7343 19.6677 12.6081 19.7777 12.519C20.3773 12.0351 21.1327 11.7686 21.9049 11.7686C22.1513 11.7686 22.3976 11.7955 22.6391 11.8494C23.0914 11.4914 23.3774 10.9836 23.4487 10.4076C23.4602 10.3167 23.4659 10.2252 23.4659 10.1347C23.4659 9.60709 23.2727 9.09564 22.9218 8.69589C22.5681 8.29346 22.0806 8.03504 21.5486 7.96904C21.484 7.96098 21.4188 7.95564 21.3538 7.95357C21.306 8.00776 21.2562 8.06125 21.2047 8.11309C20.9961 8.32304 20.739 8.5135 20.4184 8.69622C20.1768 8.83318 19.9029 8.96237 19.6044 9.08017C19.0873 9.28375 18.6821 9.38097 18.6781 9.38167C18.6391 9.39109 18.5973 9.39583 18.5556 9.39583C18.3103 9.39583 18.099 9.22961 18.0408 8.99134C18.0075 8.85343 18.0301 8.7114 18.1037 8.59093C18.1754 8.47286 18.2875 8.38942 18.4207 8.3544L18.4311 8.35206L18.5274 8.60209L18.4611 8.344L18.5563 8.31807C18.6418 8.29384 18.7629 8.25718 18.9063 8.20876C19.1653 8.12026 19.5472 7.97321 19.8952 7.77535C20.1247 7.64513 20.3175 7.50413 20.4521 7.36824C20.5291 7.29015 20.6045 7.20404 20.6765 7.11151L20.7108 7.06909C21.0416 6.63202 21.233 6.08255 21.2327 5.5418C21.232 4.98324 21.0348 4.46743 20.6623 4.04949C20.2198 3.55421 19.5849 3.26986 18.92 3.26986C18.3463 3.26986 17.7944 3.48047 17.3665 3.86274C17.2692 3.94955 17.144 3.99732 17.0138 3.99732C16.8627 3.99732 16.7187 3.93272 16.6184 3.82003C16.5246 3.71471 16.4771 3.57877 16.4848 3.43777C16.4929 3.29644 16.5555 3.16688 16.6608 3.07266C16.8903 2.86777 17.1444 2.69611 17.4179 2.56088C17.3506 2.05514 17.1191 1.58475 16.755 1.22067C16.3139 0.779528 15.7277 0.536902 15.1045 0.536621C14.481 0.536902 13.8949 0.779528 13.4538 1.22067C13.013 1.66148 12.7704 2.24798 12.7701 2.87109V6.67674H14.9451C15.2371 6.67674 15.4747 6.91463 15.4747 7.20634C15.4747 7.49837 15.2371 7.73598 14.9451 7.73598H12.7701V10.3488C13.401 10.3784 13.9346 10.4629 14.3959 10.6055C14.9461 10.7748 15.398 11.0352 15.7382 11.3788C15.9391 11.5817 16.1086 11.8212 16.2425 12.0908C16.4165 12.4431 16.5097 12.8018 16.5716 13.075C16.6056 13.2265 16.6352 13.3761 16.6638 13.5222C16.713 13.7695 16.759 14.003 16.8203 14.2099C16.8765 14.4004 16.9404 14.5531 17.0165 14.6773C17.1104 14.8321 17.2238 14.9485 17.3725 15.0447C17.5841 15.18 17.8634 15.2689 18.2258 15.316C18.3651 15.3334 18.49 15.4048 18.5767 15.5165C18.6635 15.6289 18.7012 15.7682 18.6834 15.9082C18.6491 16.172 18.4233 16.3705 18.1585 16.3705L18.0898 16.3658C17.6467 16.3089 17.2782 16.1992 16.963 16.031C16.6628 15.8715 16.4121 15.6548 16.2183 15.388C16.1053 15.2338 16.0111 15.0633 15.93 14.8677C15.8462 14.6659 15.7799 14.4482 15.7146 14.1618C15.6813 14.0138 15.6524 13.8657 15.6234 13.719C15.5938 13.5696 15.5645 13.4212 15.5309 13.2765C15.4339 12.8532 15.3192 12.5621 15.1584 12.3327C15.0493 12.1762 14.9178 12.045 14.7556 11.9316C14.5355 11.7782 14.264 11.6607 13.9255 11.5726C13.5988 11.4874 13.2112 11.4322 12.77 11.409V21.1284C12.7703 21.7515 13.013 22.338 13.4534 22.7792C13.8949 23.22 14.481 23.4626 15.1045 23.4629C15.7277 23.4626 16.3138 23.22 16.755 22.7792C17.1958 22.3377 17.4387 21.7515 17.4387 21.1284C17.4391 20.7909 17.3465 20.4204 17.1843 20.1118C16.9999 19.7588 16.7432 19.4984 16.4219 19.3369C16.1735 19.2131 15.8987 19.1525 15.5814 19.1518C15.2896 19.1518 15.052 18.9146 15.052 18.6229C15.052 18.3305 15.2896 18.0929 15.5816 18.0929C15.9434 18.0929 16.2866 18.1505 16.6019 18.2642C16.897 18.3702 17.1689 18.526 17.4098 18.7265C17.8304 19.0782 18.1497 19.5604 18.3334 20.1209C18.4411 20.4503 18.4976 20.7986 18.4976 21.1283C18.498 21.3914 18.4677 21.6525 18.4078 21.9076C18.6521 21.9911 18.9109 22.0348 19.1666 22.0348C19.7379 22.0345 20.2885 21.8248 20.7158 21.4446C21.2131 21.0021 21.4984 20.3661 21.4988 19.6996C21.4988 19.4173 21.4483 19.1407 21.3497 18.8773C21.2494 18.6104 21.1007 18.3651 20.9086 18.1488C20.7147 17.9304 20.7346 17.5952 20.9523 17.4011C21.0499 17.3146 21.1747 17.2675 21.3042 17.2675C21.4556 17.2675 21.6 17.3321 21.7006 17.4455L21.7373 17.4875L21.7616 17.4916C21.7781 17.494 21.7885 17.495 21.813 17.496C21.8345 17.4963 21.8645 17.4966 21.9059 17.4966C22.529 17.4963 23.1155 17.2537 23.5567 16.8129C23.9975 16.3715 24.2401 15.7853 24.2404 15.1621C24.2402 14.7264 24.1193 14.3014 23.8915 13.9336Z" fill="#06B6D4"/>
<path d="M9.37643 0.536621C8.75289 0.536902 8.16677 0.779528 7.72562 1.22067C7.36155 1.58475 7.13003 2.05551 7.06276 2.56055C7.33567 2.69583 7.58969 2.86706 7.81952 3.07233L7.85688 3.10903L7.89559 3.15342L7.97331 3.23888C8.04363 3.31491 8.14591 3.42394 8.27106 3.5491C8.49752 3.77658 8.84444 4.10433 9.21222 4.37583C9.45616 4.55621 9.68463 4.6928 9.87372 4.77122C10.005 4.82574 10.0965 4.84421 10.1503 4.8503C10.2913 4.8661 10.4175 4.93575 10.5056 5.0461C10.5941 5.15649 10.6341 5.29477 10.6183 5.43544C10.5883 5.70394 10.3623 5.90654 10.0924 5.90654L10.0338 5.90321C9.85282 5.88301 9.66775 5.83252 9.46788 5.74941C9.30166 5.68041 9.13207 5.59163 8.94864 5.47754C8.66097 5.29819 8.35038 5.06129 8.02567 4.77394C7.55027 4.35268 7.18651 3.94955 7.09295 3.84389C6.66733 3.47344 6.12386 3.26953 5.56028 3.26953C4.89568 3.26986 4.26076 3.55388 3.81863 4.04916C3.43604 4.47685 3.22576 5.02899 3.22543 5.60269C3.22543 5.99232 3.32265 6.37393 3.50771 6.71546H3.51409C3.68874 6.71546 3.86438 6.72859 4.03566 6.75516C4.3247 6.80026 4.52288 7.0711 4.47845 7.35948C4.43771 7.61959 4.21801 7.80835 3.95555 7.80835C3.92865 7.80835 3.90104 7.80629 3.87348 7.80226C3.75638 7.78379 3.63521 7.7747 3.51409 7.7747C3.48615 7.7747 3.45859 7.77503 3.43027 7.77568C2.82258 7.79757 2.2546 8.05093 1.83197 8.48936C1.41071 8.92679 1.17886 9.50148 1.17886 10.1072C1.17886 10.1351 1.17919 10.1634 1.17989 10.1916C1.20206 10.8172 1.47633 11.4074 1.93697 11.8296C2.14829 11.7893 2.36227 11.7687 2.57461 11.7687C3.34787 11.7687 4.10326 12.0352 4.70256 12.5191L4.75506 12.5669L4.79513 12.612C4.81332 12.6318 4.84121 12.6611 4.87792 12.6981C4.98189 12.8031 5.09429 12.9061 5.21171 13.0046C5.47182 13.2227 5.884 13.5232 6.37295 13.7173C6.70637 13.8496 7.03445 13.9166 7.34777 13.9166C7.6398 13.9166 7.87736 14.1541 7.87736 14.4461C7.87736 14.7382 7.6398 14.9758 7.34777 14.9758C6.89851 14.9754 6.43923 14.8833 5.98229 14.7016C5.62693 14.5603 5.27195 14.3651 4.92676 14.1211C4.44727 13.7816 4.11816 13.4408 4.00782 13.3199C3.59499 12.9983 3.09999 12.828 2.57476 12.828C2.19624 12.828 1.83483 12.9159 1.50071 13.0898C1.12688 13.2836 0.811595 13.5757 0.589173 13.9337C0.36136 14.3015 0.240609 14.7265 0.240234 15.1625C0.240609 15.7854 0.483188 16.3715 0.923955 16.813C1.3651 17.2538 1.95155 17.4964 2.57476 17.4967C2.65182 17.4967 2.68885 17.4964 2.71979 17.493L2.74065 17.4903L2.78002 17.4455C2.88061 17.3322 3.02499 17.2676 3.1764 17.2676C3.30596 17.2676 3.43079 17.3147 3.52801 17.4012C3.63366 17.495 3.69662 17.6246 3.70501 17.7662C3.71307 17.9072 3.66596 18.0432 3.57179 18.1488C3.37998 18.3651 3.23129 18.6108 3.13097 18.8776C3.03207 19.1411 2.98191 19.4173 2.98191 19.6997C2.98219 20.3659 3.26757 21.0019 3.76454 21.4446C4.19223 21.8249 4.74273 22.0345 5.31404 22.0349C5.56979 22.0349 5.82854 21.9911 6.07281 21.9077C6.0129 21.6533 5.98295 21.3922 5.98295 21.1284C5.98295 20.7067 6.07248 20.2717 6.24137 19.8689C6.43117 19.416 6.71781 19.0213 7.0705 18.7273C7.1657 18.6478 7.28617 18.6041 7.40964 18.6041C7.56752 18.6041 7.7155 18.6734 7.81647 18.7946C8.00289 19.0187 7.97294 19.3531 7.7492 19.5403C7.52608 19.726 7.34237 19.9811 7.21755 20.2788C7.10416 20.549 7.04158 20.8508 7.0419 21.1285C7.0419 21.7516 7.28481 22.3378 7.72562 22.7793C8.16677 23.2201 8.75294 23.4627 9.37643 23.463C9.99958 23.4627 10.5861 23.2201 11.0272 22.7793C11.4677 22.3381 11.7103 21.7516 11.7106 21.1285V16.8844H9.73408C9.44238 16.8844 9.20482 16.6472 9.20482 16.3551C9.20482 16.0631 9.44238 15.8254 9.73408 15.8254H11.7106V12.6066C11.4858 12.503 11.2402 12.4485 10.9918 12.4482C10.8176 12.4482 10.6433 12.4751 10.474 12.5276C10.0312 12.6807 9.58469 12.7601 9.15499 12.7601C8.33702 12.7601 7.5917 12.4694 7.05198 11.9418C6.53879 11.4411 6.24404 10.7506 6.24376 10.047C6.24343 9.42151 6.46647 8.82357 6.8898 8.31784C6.99072 8.19667 7.1388 8.12771 7.29625 8.12771C7.42009 8.12771 7.54056 8.1715 7.63544 8.25085C7.85955 8.43831 7.8895 8.77243 7.70275 8.99654C7.43828 9.31417 7.3037 9.6678 7.30337 10.0474C7.30337 10.4663 7.48136 10.8808 7.79191 11.184C8.13916 11.5215 8.61058 11.7002 9.15536 11.7009C9.4683 11.7009 9.80036 11.6406 10.1419 11.5222C10.4289 11.432 10.7096 11.3893 10.9922 11.3893C11.2361 11.3893 11.4764 11.4209 11.7106 11.4845V2.87114C11.7102 2.24798 11.4677 1.66148 11.0272 1.22072C10.5861 0.779528 9.99958 0.536949 9.37643 0.536621Z" fill="#06B6D4"/>
</svg>
