<svg width="600" height="574" viewBox="0 0 600 574" fill="none" xmlns="http://www.w3.org/2000/svg">
<path d="M591.277 335.348C585.716 326.397 577.843 319.096 568.488 314.25C566.511 313.207 564.35 312.265 562.045 311.407H561.717C558.991 311.407 556.384 310.584 554.189 309.06C550.083 308.16 545.869 307.706 541.637 307.706C528.162 307.706 515.518 312.163 505.062 320.593C502.715 322.485 499.771 323.528 496.76 323.528C492.73 323.528 488.97 321.736 486.446 318.606C484.226 315.856 483.207 312.407 483.587 308.89C483.956 305.365 485.681 302.211 488.431 299.982C503.422 287.886 522.307 281.223 541.612 281.223C547.771 281.223 553.928 281.896 559.967 283.243C571.274 274.292 578.423 261.598 580.207 247.197C580.493 244.926 580.636 242.637 580.636 240.374C580.636 227.185 575.807 214.398 567.034 204.405C558.192 194.344 546.003 187.883 532.704 186.233C531.089 186.032 529.458 185.898 527.833 185.847C526.638 187.201 525.394 188.538 524.107 189.835C518.891 195.083 512.464 199.845 504.449 204.413C498.409 207.837 491.56 211.067 484.099 214.012C471.171 219.101 461.042 221.532 460.942 221.549C459.965 221.785 458.922 221.903 457.879 221.903C451.747 221.903 446.464 217.748 445.01 211.791C444.177 208.343 444.74 204.792 446.583 201.781C448.374 198.829 451.175 196.743 454.507 195.867L454.767 195.809L457.173 202.06L455.516 195.607L457.897 194.959C460.033 194.353 463.061 193.437 466.645 192.226C473.122 190.014 482.669 186.338 491.368 181.391C497.106 178.136 501.926 174.611 505.29 171.213C507.217 169.261 509.101 167.108 510.901 164.795L511.759 163.735C520.028 152.808 524.814 139.071 524.805 125.552C524.789 111.588 519.859 98.693 510.547 88.2445C499.485 75.8625 483.611 68.7538 466.988 68.7538C452.646 68.7538 438.849 74.0191 428.15 83.5758C425.72 85.7461 422.589 86.9402 419.334 86.9402C415.557 86.9402 411.956 85.3254 409.449 82.5082C407.103 79.875 405.917 76.4765 406.109 72.9515C406.312 69.4183 407.877 66.1792 410.51 63.8238C416.246 58.7015 422.598 54.4101 429.436 51.0292C427.753 38.3858 421.966 26.626 412.864 17.5241C401.836 6.49552 387.182 0.429883 371.602 0.422852C356.014 0.429883 341.361 6.49552 330.333 17.5241C319.313 28.5444 313.249 43.2069 313.24 58.7847V153.926H367.616C374.916 153.926 380.855 159.873 380.855 167.166C380.855 174.467 374.916 180.407 367.616 180.407H313.24V245.727C329.013 246.467 342.355 248.58 353.887 252.146C367.64 256.376 378.938 262.888 387.443 271.477C392.465 276.549 396.704 282.538 400.052 289.278C404.402 298.084 406.732 307.052 408.28 313.882C409.129 317.669 409.87 321.411 410.585 325.062C411.813 331.245 412.965 337.083 414.497 342.256C415.902 347.017 417.499 350.835 419.401 353.94C421.748 357.809 424.583 360.72 428.3 363.126C433.592 366.508 440.573 368.729 449.634 369.906C453.117 370.344 456.238 372.127 458.407 374.92C460.577 377.73 461.519 381.213 461.074 384.712C460.216 391.307 454.571 396.27 447.951 396.27L446.234 396.152C435.156 394.729 425.945 391.988 418.063 387.782C410.559 383.794 404.292 378.377 399.447 371.706C396.621 367.853 394.265 363.589 392.238 358.701C390.143 353.654 388.485 348.211 386.854 341.052C386.021 337.352 385.298 333.65 384.574 329.982C383.833 326.247 383.102 322.538 382.261 318.92C379.837 308.338 376.968 301.061 372.948 295.325C370.222 291.413 366.934 288.132 362.879 285.297C357.377 281.461 350.588 278.526 342.126 276.321C333.958 274.193 324.268 272.813 313.239 272.233V515.217C313.247 530.796 319.313 545.458 330.324 556.487C341.361 567.507 356.014 573.572 371.602 573.58C387.181 573.573 401.834 567.507 412.864 556.487C423.884 545.45 429.957 530.796 429.957 515.217C429.965 506.779 427.652 497.518 423.597 489.804C418.987 480.978 412.569 474.468 404.536 470.43C398.327 467.335 391.455 465.821 383.523 465.804C376.229 465.804 370.29 459.873 370.29 452.58C370.29 445.269 376.229 439.331 383.53 439.331C392.573 439.331 401.154 440.77 409.036 443.613C416.413 446.262 423.211 450.157 429.233 455.171C439.748 463.961 447.732 476.016 452.325 490.03C455.017 498.266 456.43 506.972 456.43 515.216C456.438 521.793 455.681 528.321 454.184 534.698C460.292 536.784 466.761 537.877 473.154 537.877C487.436 537.869 501.2 532.627 511.883 523.122C524.317 512.06 531.45 496.161 531.458 479.498C531.458 472.44 530.196 465.526 527.731 458.939C525.225 452.267 521.506 446.135 516.703 440.726C511.857 435.267 512.353 426.888 517.796 422.035C520.236 419.873 523.357 418.695 526.595 418.695C530.38 418.695 533.989 420.31 536.504 423.145L537.422 424.196L538.028 424.298C538.44 424.357 538.7 424.381 539.314 424.407C539.852 424.415 540.601 424.423 541.636 424.423C557.215 424.415 571.877 418.35 582.907 407.33C593.926 396.294 599.992 381.64 600 366.06C599.993 355.167 596.972 344.542 591.277 335.348Z" fill="#06B6D4"/>
<path d="M228.405 0.42041C212.816 0.427441 198.163 6.49308 187.135 17.5216C178.033 26.6236 172.245 38.3928 170.563 51.0186C177.386 54.4006 183.736 58.6815 189.482 63.8131L190.416 64.7307L191.384 65.8405L193.327 67.9768C195.085 69.8776 197.642 72.6034 200.771 75.7323C206.432 81.4194 215.105 89.6132 224.3 96.4007C230.398 100.91 236.11 104.325 240.837 106.285C244.118 107.648 246.406 108.11 247.751 108.262C251.276 108.657 254.431 110.399 256.634 113.157C258.847 115.917 259.847 119.374 259.451 122.891C258.702 129.603 253.051 134.668 246.304 134.668L244.84 134.585C240.315 134.08 235.688 132.818 230.691 130.74C226.536 129.015 222.296 126.796 217.71 123.943C210.518 119.46 202.754 113.537 194.636 106.353C182.751 95.8218 173.657 85.7436 171.318 83.1022C160.677 73.8409 147.091 68.7432 133.001 68.7432C116.386 68.7514 100.513 75.8518 89.46 88.2339C79.8951 98.9261 74.6381 112.73 74.6298 127.072C74.6298 136.813 77.0603 146.353 81.6869 154.891H81.8463C86.2127 154.891 90.6037 155.22 94.8858 155.884C102.112 157.011 107.066 163.782 105.955 170.992C104.937 177.495 99.4444 182.214 92.883 182.214C92.2104 182.214 91.5201 182.162 90.8311 182.061C87.9037 181.6 84.8744 181.372 81.8463 181.372C81.1478 181.372 80.4588 181.381 79.751 181.397C64.5587 181.944 50.3591 188.278 39.7934 199.239C29.2618 210.175 23.4657 224.542 23.4657 239.684C23.4657 240.382 23.4739 241.089 23.4915 241.796C24.0458 257.434 30.9024 272.189 42.4185 282.746C47.7013 281.737 53.0509 281.223 58.3595 281.223C77.6908 281.223 96.5756 287.885 111.558 299.982L112.871 301.177L113.873 302.304C114.327 302.8 115.024 303.531 115.942 304.458C118.541 307.082 121.351 309.657 124.287 312.121C130.79 317.573 141.094 325.084 153.318 329.938C161.653 333.244 169.855 334.919 177.688 334.919C184.989 334.919 190.928 340.857 190.928 348.159C190.928 355.461 184.989 361.4 177.688 361.4C166.457 361.39 154.975 359.086 143.551 354.544C134.667 351.012 125.793 346.131 117.163 340.033C105.176 331.546 96.9483 323.024 94.1897 320.003C83.8689 311.962 71.4939 307.705 58.363 307.705C48.9001 307.705 39.8649 309.902 31.5118 314.25C22.1661 319.096 14.284 326.397 8.72346 335.348C3.02813 344.542 0.00937502 355.166 0 366.068C0.00937502 381.639 6.07384 396.293 17.093 407.329C28.1215 418.349 42.7829 424.414 58.363 424.422C60.2896 424.422 61.2154 424.414 61.9888 424.331L62.5103 424.263L63.4947 423.144C66.0095 420.309 69.6189 418.694 73.4041 418.694C76.6431 418.694 79.7638 419.872 82.1943 422.034C84.8357 424.38 86.4096 427.619 86.6193 431.16C86.8209 434.685 85.6431 438.084 83.2888 440.725C78.4935 446.133 74.7763 452.275 72.2685 458.946C69.7959 465.533 68.5419 472.439 68.5419 479.497C68.549 496.153 75.6834 512.052 88.1076 523.121C98.7998 532.626 112.562 537.868 126.845 537.876C133.239 537.876 139.708 536.783 145.814 534.697C144.317 528.337 143.568 521.81 143.568 515.214C143.568 504.673 145.806 493.797 150.028 483.728C154.773 472.406 161.939 462.537 170.757 455.186C173.137 453.201 176.148 452.108 179.235 452.108C183.182 452.108 186.882 453.841 189.406 456.869C194.066 462.472 193.318 470.833 187.724 475.511C182.146 480.154 177.554 486.532 174.433 493.975C171.598 500.73 170.034 508.276 170.042 515.217C170.042 530.796 176.114 545.449 187.135 556.487C198.163 567.507 212.818 573.572 228.405 573.58C243.984 573.573 258.646 567.507 269.675 556.487C280.686 545.458 286.751 530.796 286.76 515.217V409.115H237.346C230.054 409.115 224.115 403.184 224.115 395.882C224.115 388.581 230.054 382.641 237.346 382.641H286.76V302.171C281.139 299.581 274.999 298.217 268.79 298.21C264.433 298.21 260.076 298.882 255.844 300.195C244.774 304.022 233.611 306.007 222.869 306.007C202.42 306.007 183.787 298.739 170.294 285.549C157.464 273.032 150.095 255.77 150.088 238.18C150.08 222.543 155.656 207.594 166.239 194.951C168.762 191.922 172.464 190.198 176.4 190.198C179.496 190.198 182.508 191.292 184.88 193.276C190.483 197.963 191.232 206.316 186.563 211.918C179.951 219.859 176.587 228.7 176.578 238.19C176.578 248.663 181.028 259.026 188.792 266.605C197.473 275.043 209.259 279.51 222.878 279.526C230.702 279.526 239.003 278.021 247.542 275.06C254.717 272.806 261.733 271.737 268.799 271.737C274.898 271.737 280.905 272.528 286.76 274.118V58.7834C286.75 43.2045 280.686 28.542 269.675 17.5228C258.646 6.49308 243.984 0.428613 228.405 0.42041Z" fill="#06B6D4"/>
</svg>
