<svg width="25" height="22" viewBox="0 0 25 22" fill="none" xmlns="http://www.w3.org/2000/svg">
<path fill-rule="evenodd" clip-rule="evenodd" d="M20.4586 0.781041C20.3048 0.498342 20.0057 0.325613 19.6839 0.333773C18.2409 0.370424 15.0878 1.15761 13.1715 4.00047C11.2061 2.91214 9.15478 3.08667 8.34651 3.32135C8.06469 3.40319 7.84423 3.62361 7.76229 3.90552C7.44618 4.99447 7.25076 7.64671 9.15753 9.55336C10.0519 10.4477 11.0055 10.8353 11.9007 10.8504C12.4695 10.86 12.9812 10.7184 13.4012 10.5008C13.6208 10.7012 13.844 10.862 14.0524 10.9824C14.6992 11.3557 15.7542 11.658 16.9173 11.424C18.1188 11.1823 19.3293 10.3899 20.2719 8.75708C22.1413 5.51917 21.1861 2.11818 20.4586 0.781041ZM12.3745 9.07499C12.3246 8.96166 12.2787 8.84405 12.2375 8.7222C11.9312 7.8129 11.9142 6.73002 12.3738 5.51903C11.2213 4.87077 10.02 4.81051 9.30873 4.88231C9.18976 5.80494 9.30907 7.28064 10.3697 8.34119C10.9966 8.96811 11.5412 9.1298 11.9297 9.13635C12.0918 9.13907 12.2415 9.11509 12.3745 9.07499ZM14.3545 5.34061C15.6294 3.13232 17.8591 2.3025 19.181 2.09956C19.6661 3.34576 20.0623 5.69166 18.7874 7.89995C18.0583 9.16288 17.2375 9.61101 16.5792 9.74345C15.8826 9.88354 15.2492 9.69381 14.9096 9.49776C14.5701 9.3017 14.0889 8.84813 13.8621 8.17471C13.6477 7.53836 13.6254 6.60356 14.3545 5.34061Z" fill="#0EA5E9"/>
<path fill-rule="evenodd" clip-rule="evenodd" d="M7.86696 13.7985C10.6552 13.7422 13.4329 13.8009 16.2 13.9746C17.0264 14.8411 16.9482 15.6236 15.9652 16.3219C14.5959 16.361 13.2267 16.4001 11.8574 16.4393C11.3897 16.836 11.3897 17.2272 11.8574 17.6129C13.657 17.6912 15.4567 17.6912 17.2562 17.6129C18.9777 16.361 20.6989 15.1091 22.4204 13.8572C24.1815 13.662 24.8661 14.4249 24.4743 16.1458C24.3426 16.3951 24.1665 16.6103 23.9461 16.7913C22.3995 17.8973 20.8737 19.0318 19.3688 20.195C18.653 20.7484 17.8707 21.1788 17.0215 21.486C11.939 21.6771 6.85314 21.7162 1.76393 21.6034C1.38179 21.4171 1.1275 21.1237 1.00105 20.7231C0.88929 19.4596 0.92842 18.2077 1.11841 16.9674C1.2995 16.7469 1.51466 16.5709 1.76393 16.4393C2.46812 16.4001 3.17232 16.361 3.87651 16.3219C4.65896 15.6959 5.44139 15.07 6.22384 14.444C6.75399 14.1442 7.3017 13.929 7.86696 13.7985Z" fill="#0EA5E9"/>
</svg>
