<svg width="592" height="534" viewBox="0 0 592 534" fill="none" xmlns="http://www.w3.org/2000/svg">
<path fill-rule="evenodd" clip-rule="evenodd" d="M488.466 11.5314C484.622 4.46392 477.144 0.145699 469.1 0.349696C433.023 1.26597 354.197 20.9457 306.288 92.0172C257.153 64.8089 205.871 69.1721 185.664 75.0391C178.618 77.0851 173.107 82.5956 171.058 89.6434C163.156 116.867 158.27 183.173 205.939 230.839C228.297 253.198 252.138 262.888 274.518 263.265C288.738 263.505 301.531 259.965 312.03 254.526C317.52 259.536 323.1 263.556 328.312 266.565C344.481 275.899 370.855 283.455 399.933 277.605C429.972 271.562 460.233 251.754 483.799 210.932C530.534 129.985 506.655 44.9599 488.466 11.5314ZM286.364 218.88C285.117 216.047 283.968 213.107 282.939 210.06C275.281 187.328 274.857 160.256 286.347 129.981C257.534 113.775 227.5 112.268 209.719 114.063C206.745 137.129 209.728 174.021 236.243 200.535C251.916 216.208 265.531 220.25 275.242 220.414C279.297 220.482 283.038 219.883 286.364 218.88ZM335.863 125.521C367.735 70.3133 423.479 49.5678 456.525 44.4945C468.654 75.6494 478.558 134.297 446.686 189.504C428.459 221.077 407.939 232.281 391.482 235.592C374.065 239.094 358.23 234.35 349.74 229.449C341.254 224.548 329.224 213.209 323.555 196.373C318.193 180.464 317.636 157.094 335.863 125.521Z" fill="#0EA5E9"/>
<path fill-rule="evenodd" clip-rule="evenodd" d="M173.672 336.964C243.378 335.557 312.821 337.024 381.996 341.366C402.659 363.03 400.702 382.591 376.128 400.049C341.895 401.027 307.665 402.005 273.433 402.983C261.74 412.902 261.74 422.683 273.433 432.324C318.422 434.28 363.414 434.28 408.404 432.324C451.439 401.027 494.471 369.729 537.506 338.431C581.536 333.552 598.651 352.624 588.854 395.647C585.562 401.879 581.161 407.258 575.65 411.785C536.984 439.434 498.84 467.797 461.218 496.876C443.323 510.712 423.764 521.471 402.535 529.151C275.472 533.93 148.326 534.908 21.0957 532.085C11.5424 527.429 5.18497 520.094 2.02372 510.079C-0.77018 478.492 0.208066 447.195 4.95787 416.186C9.48497 410.675 14.8642 406.274 21.0957 402.983C38.7006 402.005 56.3055 401.027 73.9104 400.049C93.4715 384.4 113.032 368.751 132.593 353.102C145.847 345.607 159.54 340.227 173.672 336.964Z" fill="#0EA5E9"/>
</svg>
