<svg width="25" height="22" viewBox="0 0 25 22" fill="none" xmlns="http://www.w3.org/2000/svg">
<path d="M16.3815 15.6152H9.03356C7.67469 15.6152 6.55469 16.7435 6.55469 18.1031V21.9341H18.8281V18.1031C18.8296 16.7435 17.7389 15.6152 16.3815 15.6152Z" fill="#06B6D4"/>
<path d="M12.7067 14.2196C14.6549 14.2196 16.2342 12.6403 16.2342 10.6921C16.2342 8.74387 14.6549 7.16455 12.7067 7.16455C10.7585 7.16455 9.1792 8.74387 9.1792 10.6921C9.1792 12.6403 10.7585 14.2196 12.7067 14.2196Z" fill="#06B6D4"/>
<path d="M7.35841 6.08337C7.35841 5.33445 6.75522 4.729 6.0078 4.729H1.96648C1.21906 4.729 0.600098 5.3352 0.600098 6.08337V8.19943H7.35841V6.08337Z" fill="#06B6D4"/>
<path d="M3.98716 3.94648C5.05875 3.94648 5.92744 3.07779 5.92744 2.0062C5.92744 0.934612 5.05875 0.065918 3.98716 0.065918C2.91557 0.065918 2.04688 0.934612 2.04688 2.0062C2.04688 3.07779 2.91557 3.94648 3.98716 3.94648Z" fill="#06B6D4"/>
<path d="M23.2681 4.729H19.2268C18.4794 4.729 17.8784 5.33445 17.8784 6.08337V8.19943H24.5999V6.08412C24.5999 5.3352 24.0155 4.729 23.2681 4.729Z" fill="#06B6D4"/>
<path d="M21.2469 3.94648C22.3185 3.94648 23.1872 3.07779 23.1872 2.0062C23.1872 0.934612 22.3185 0.065918 21.2469 0.065918C20.1753 0.065918 19.3066 0.934612 19.3066 2.0062C19.3066 3.07779 20.1753 3.94648 21.2469 3.94648Z" fill="#06B6D4"/>
<path d="M9.71786 4.87547H15.9271C16.3552 4.87547 16.703 4.53744 16.703 4.10852C16.703 3.6796 16.3552 3.34082 15.9271 3.34082H9.71786C9.28894 3.34082 8.94189 3.6796 8.94189 4.10852C8.94189 4.53669 9.28894 4.87547 9.71786 4.87547Z" fill="#06B6D4"/>
<path d="M7.2391 14.7433C7.39684 14.7433 7.55609 14.6967 7.69431 14.5968C8.04135 14.3444 8.11797 13.8599 7.86708 13.5136L5.03515 9.60377C4.78276 9.25522 4.29825 9.1786 3.95121 9.43025C3.60342 9.68189 3.5268 10.1671 3.77844 10.5142L6.60961 14.4248C6.7621 14.6336 6.99947 14.7433 7.2391 14.7433Z" fill="#06B6D4"/>
<path d="M20.8406 9.50287C20.48 9.27001 20.0008 9.37668 19.7694 9.73724L17.3266 13.5494C17.0937 13.9093 17.2004 14.39 17.561 14.6229C17.6902 14.704 17.8344 14.7438 17.9801 14.7438C18.2355 14.7438 18.4864 14.6191 18.6336 14.3863L21.0757 10.5756C21.3071 10.2157 21.2019 9.73499 20.8406 9.50287Z" fill="#06B6D4"/>
</svg>
