<svg width="600" height="548" viewBox="0 0 600 548" fill="none" xmlns="http://www.w3.org/2000/svg">
<path d="M394.535 389.38H210.836C176.864 389.38 148.864 417.587 148.864 451.578V547.352H455.7V451.578C455.737 417.587 428.47 389.38 394.535 389.38Z" fill="#06B6D4"/>
<path d="M302.667 354.488C351.372 354.488 390.855 315.005 390.855 266.3C390.855 217.595 351.372 178.112 302.667 178.112C253.962 178.112 214.479 217.595 214.479 266.3C214.479 315.005 253.962 354.488 302.667 354.488Z" fill="#06B6D4"/>
<path d="M168.958 151.089C168.958 132.366 153.878 117.229 135.193 117.229H34.1596C15.4742 117.229 0 132.384 0 151.089V203.99H168.958V151.089Z" fill="#06B6D4"/>
<path d="M84.676 97.6616C111.466 97.6616 133.183 75.9442 133.183 49.1545C133.183 22.3648 111.466 0.647461 84.676 0.647461C57.8863 0.647461 36.1689 22.3648 36.1689 49.1545C36.1689 75.9442 57.8863 97.6616 84.676 97.6616Z" fill="#06B6D4"/>
<path d="M566.704 117.229H465.671C446.986 117.229 431.962 132.366 431.962 151.089V203.99H600V151.107C600 132.384 585.39 117.229 566.704 117.229Z" fill="#06B6D4"/>
<path d="M516.169 97.6616C542.958 97.6616 564.676 75.9442 564.676 49.1545C564.676 22.3648 542.958 0.647461 516.169 0.647461C489.379 0.647461 467.662 22.3648 467.662 49.1545C467.662 75.9442 489.379 97.6616 516.169 97.6616Z" fill="#06B6D4"/>
<path d="M227.944 120.892H383.174C393.878 120.892 402.573 112.441 402.573 101.718C402.573 90.9949 393.878 82.5254 383.174 82.5254H227.944C217.221 82.5254 208.545 90.9949 208.545 101.718C208.545 112.422 217.221 120.892 227.944 120.892Z" fill="#06B6D4"/>
<path d="M165.972 367.577C169.915 367.577 173.896 366.413 177.352 363.915C186.028 357.605 187.943 345.493 181.671 336.835L110.873 239.089C104.563 230.375 92.4504 228.46 83.7744 234.751C75.0795 241.042 73.164 253.173 79.4551 261.849L150.234 359.615C154.047 364.835 159.981 367.577 165.972 367.577Z" fill="#06B6D4"/>
<path d="M506.01 236.572C496.995 230.751 485.014 233.417 479.23 242.431L418.16 337.737C412.338 346.732 415.005 358.751 424.019 364.572C427.249 366.601 430.855 367.596 434.498 367.596C440.883 367.596 447.155 364.478 450.836 358.657L511.887 263.389C517.671 254.394 515.042 242.375 506.01 236.572Z" fill="#06B6D4"/>
</svg>
