<svg width="600" height="472" viewBox="0 0 600 472" fill="none" xmlns="http://www.w3.org/2000/svg">
<path d="M299.999 188.578C351.939 188.578 394.054 146.463 394.054 94.5186C394.054 42.5835 351.939 0.46875 299.999 0.46875C248.06 0.46875 205.951 42.5823 205.951 94.5186C205.95 146.463 248.058 188.578 299.999 188.578Z" fill="#06B6D4"/>
<path d="M507.31 230.835C546.033 230.835 577.43 199.437 577.43 160.705C577.43 121.981 546.033 90.5845 507.31 90.5845C468.585 90.5845 437.179 121.981 437.179 160.705C437.179 199.437 468.585 230.835 507.31 230.835Z" fill="#06B6D4"/>
<path d="M508.105 246.953C481.144 246.953 460.525 255.345 445.614 266.544C448.771 273.45 451.008 280.122 452.323 286.25L452.967 289.264V442.02H519.1C563.781 442.02 600 405.801 600 361.12V308.208C595.168 285.652 566.141 246.953 508.105 246.953Z" fill="#06B6D4"/>
<path d="M92.6904 90.5835C53.9624 90.5835 22.5691 121.98 22.5691 160.704C22.5691 199.436 53.9624 230.834 92.6904 230.834C131.418 230.834 162.816 199.436 162.816 160.704C162.816 121.981 131.418 90.5835 92.6904 90.5835Z" fill="#06B6D4"/>
<path d="M0 308.211V361.122C0 405.803 36.2191 442.022 80.9002 442.022H147.031V289.265L147.676 286.251C148.991 280.123 151.231 273.449 154.386 266.545C139.469 255.346 118.851 246.954 91.8948 246.954C33.8577 246.953 4.83515 285.652 0 308.211Z" fill="#06B6D4"/>
<path d="M299.999 210.199C222.164 210.199 183.247 262.089 176.757 292.36V427.691C176.757 452.057 196.517 471.818 220.884 471.818H379.115C403.482 471.818 423.242 452.058 423.242 427.691V292.36C416.757 262.089 377.836 210.199 299.999 210.199Z" fill="#06B6D4"/>
</svg>
