<svg width="512" height="512" viewBox="0 0 512 512" fill="none" xmlns="http://www.w3.org/2000/svg">
<path d="M512 192V234.667H384L277.333 128H448C464.974 128 481.253 134.743 493.255 146.745C505.257 158.748 512 175.026 512 192ZM0 192V234.667H128L234.667 128H64C47.0261 128 30.7475 134.743 18.7452 146.745C6.74284 158.748 0 175.026 0 192ZM362.667 53.3333L277.333 0H234.667V128H277.333V106.667L362.667 53.3333ZM366.336 277.333H512V512H320V426.667C320 409.693 313.257 393.414 301.255 381.412C289.253 369.41 272.974 362.667 256 362.667C239.026 362.667 222.747 369.41 210.745 381.412C198.743 393.414 192 409.693 192 426.667V512H0V277.333H145.664L256 170.667L366.336 277.333ZM128 426.667H64V469.333H128V426.667ZM128 341.333H64V384H128V341.333ZM298.667 277.333C298.667 268.895 296.164 260.646 291.476 253.629C286.788 246.613 280.124 241.144 272.328 237.914C264.532 234.685 255.953 233.84 247.676 235.486C239.4 237.133 231.797 241.196 225.83 247.163C219.863 253.13 215.799 260.733 214.153 269.009C212.507 277.286 213.352 285.865 216.581 293.661C219.81 301.457 225.279 308.121 232.296 312.809C239.312 317.498 247.561 320 256 320C267.316 320 278.168 315.505 286.17 307.503C294.171 299.502 298.667 288.649 298.667 277.333ZM384 384H448V341.333H384V384ZM384 469.333H448V426.667H384V469.333ZM256 405.333C250.342 405.333 244.916 407.581 240.915 411.582C236.914 415.583 234.667 421.009 234.667 426.667V512H277.333V426.667C277.333 421.009 275.086 415.583 271.085 411.582C267.084 407.581 261.658 405.333 256 405.333Z" fill="#0EA5E9"/>
</svg>
