<svg width="512" height="512" viewBox="0 0 512 512" fill="none" xmlns="http://www.w3.org/2000/svg">
<path d="M321.941 341.248C462.123 340.544 512 266.304 512 202.645C512 166.869 486.656 136.939 453.013 129.707C455.915 121.472 458.432 113.899 460.117 108.16C467.648 82.7093 462.784 55.8293 446.763 34.3893C430.421 12.544 405.44 0 378.197 0H133.781C106.539 0 81.536 12.544 65.1947 34.3893C49.1733 55.8293 44.3093 82.7307 51.84 108.16C53.5467 113.899 56.0427 121.472 58.9653 129.728C25.3227 136.96 0 166.891 0 202.667C0 266.325 49.8987 340.565 190.059 341.269C191.253 347.712 192 354.283 192 360.981V426.667C192 465.621 159.232 469.163 149.333 469.333H128C116.203 469.333 106.667 478.869 106.667 490.667C106.667 502.464 116.203 512 128 512H384C395.797 512 405.333 502.464 405.333 490.667C405.333 478.869 395.797 469.333 384 469.333H362.837C352.768 469.163 320 465.621 320 426.667V360.96C320 354.283 320.747 347.712 321.941 341.269V341.248ZM436.309 170.432C436.672 170.432 436.971 170.645 437.333 170.645C454.976 170.645 469.333 185.003 469.333 202.645C469.333 246.037 435.008 292.181 340.565 298.005C345.28 291.627 350.677 285.717 356.821 280.491C393.92 248.96 419.392 206.827 436.309 170.432ZM42.6667 202.645C42.6667 185.003 57.024 170.645 74.6667 170.645C75.0293 170.645 75.328 170.453 75.6693 170.432C92.608 206.827 118.08 248.96 155.179 280.491C161.323 285.717 166.72 291.605 171.435 298.005C76.992 292.181 42.6667 246.037 42.6667 202.645ZM208.896 208.256C203.264 204.373 200.896 197.205 203.136 190.72L214.208 156.459L185.067 135.125C178.091 130.005 176.576 120.213 181.696 113.237C184.64 109.227 189.333 106.837 194.304 106.837H230.165L241.067 72.8533C243.819 64.5973 252.736 60.16 260.992 62.912C265.685 64.4693 269.376 68.16 270.933 72.8533L281.813 106.837H317.675C326.315 106.837 333.333 113.835 333.333 122.496C333.333 127.509 330.944 132.203 326.912 135.147L297.771 156.48L308.843 190.741C311.488 198.976 306.965 207.808 298.709 210.475C293.931 212.011 288.704 211.157 284.651 208.192L256 187.115L227.328 208.171C221.867 212.245 214.4 212.267 208.896 208.256Z" fill="#06B6D4"/>
</svg>
