<svg width="385" height="514" viewBox="0 0 385 514" fill="none" xmlns="http://www.w3.org/2000/svg">
<path d="M226.998 4.464C203.211 -1.488 178.337 -1.488 154.55 4.464L53.9633 33.0507C33.9313 38.7467 20.1073 57.0507 20.1073 77.872C20.1073 95.5147 30.07 111.664 45.8567 119.557L62.774 128.005C62.774 128.005 105.441 149.339 190.774 149.339C276.107 149.339 318.774 128.005 318.774 128.005L335.691 119.557C351.478 111.664 361.441 95.536 361.441 77.872C361.441 57.0507 347.617 38.7467 327.585 33.0507L226.998 4.464ZM179.809 114.352L144.758 93.3387C134.646 87.28 131.382 74.16 137.441 64.0693C143.499 53.9787 156.598 50.6933 166.71 56.752L190.774 71.1947L214.838 56.752C224.95 50.6933 238.049 53.9573 244.107 64.0693C250.166 74.1813 246.902 87.28 236.79 93.3387L201.739 114.352C194.977 118.405 186.55 118.405 179.787 114.352H179.809ZM318.625 173.744C316.982 242.907 260.321 298.672 190.774 298.672C121.227 298.672 64.5873 242.885 62.9233 173.744C85.622 181.424 127.905 192.005 190.774 192.005C253.643 192.005 295.926 181.424 318.625 173.744ZM170.678 513.157H21.3447C15.222 513.157 9.398 510.533 5.34466 505.947C1.29133 501.339 -0.586003 495.237 0.160664 489.179C11.638 397.36 80.438 331.355 170.657 322.309L170.678 513.157ZM383.841 489.179C384.609 495.237 382.71 501.339 378.657 505.947C374.625 510.533 368.779 513.157 362.657 513.157H213.323V322.309C303.542 331.355 372.363 397.36 383.841 489.179Z" fill="#0EA5E9"/>
</svg>
