<svg width="513" height="512" viewBox="0 0 513 512" fill="none" xmlns="http://www.w3.org/2000/svg">
<path d="M234.67 405.333H277.337V490.667C277.337 502.464 267.78 512 256.004 512C244.228 512 234.67 502.464 234.67 490.667V405.333ZM394.308 110.016C387.588 108.587 381.7 102.101 379.31 93.5467C363.95 38.464 313.241 0 256.004 0C198.766 0 148.057 38.464 132.697 93.5467C130.308 102.101 124.42 108.587 117.7 110.016C47.3851 125.205 -2.08694 188.523 0.067727 260.587C2.45706 340.395 71.8331 405.333 154.692 405.333H234.67V328.832L155.588 249.749C147.246 241.408 147.246 227.925 155.588 219.584C163.929 211.243 177.412 211.243 185.753 219.584L234.67 268.501V192C234.67 180.203 244.228 170.667 256.004 170.667C267.78 170.667 277.337 180.203 277.337 192V268.501L326.254 219.584C334.596 211.243 348.078 211.243 356.42 219.584C364.761 227.925 364.761 241.408 356.42 249.749L277.337 328.832V405.333H336.729C435.737 405.333 509.422 344.448 511.94 260.587C514.116 188.523 464.644 125.205 394.308 110.016Z" fill="#0EA5E9"/>
</svg>
