<svg width="512" height="512" viewBox="0 0 512 512" fill="none" xmlns="http://www.w3.org/2000/svg">
<g clip-path="url(#clip0_503_1797)">
<path d="M300.429 243.32L236.429 193.208C197.73 162.958 143.65 162.915 104.952 193.208L40.9515 243.299C14.9462 263.672 0.0341797 294.286 0.0341797 327.31V415.886C0.0341797 468.814 43.1062 511.886 96.0342 511.886H245.368C298.296 511.886 341.367 468.814 341.367 415.886V327.31C341.367 294.286 326.456 263.694 300.45 243.299L300.429 243.32ZM213.346 383.907C213.346 395.683 203.789 405.24 192.013 405.24H149.346C137.57 405.24 128.013 395.683 128.013 383.907V341.24C128.013 329.464 137.57 319.907 149.346 319.907H192.013C203.789 319.907 213.346 329.464 213.346 341.24V383.907ZM503.565 474.638C491.256 497.614 467.405 511.907 441.336 511.907H345.165C369.165 486.968 384.013 453.155 384.013 415.907V327.331C384.013 281.123 363.128 238.264 326.733 209.742L262.69 159.587C241.037 142.67 215.949 132.835 190.2 129.422C191.416 125.859 192.93 122.382 195.021 119.118C195.533 118.307 283.192 15.9711 283.192 15.9711C304.312 -5.57558 336.738 -4.44492 355.81 14.8404C355.81 14.8404 444.493 118.328 445.005 119.139C454.37 133.667 455.309 152.248 446.797 167.267C439.821 179.576 425.869 186.552 425.869 186.552L482.744 269.646C491.362 282.403 492.13 300.899 484.045 316.323C476.344 330.979 460.749 338.787 460.749 338.787L500.813 403.256C514.594 424.824 515.704 452.046 503.586 474.659L503.565 474.638Z" fill="#0EA5E9"/>
</g>
<defs>
<clipPath id="clip0_503_1797">
<rect width="512" height="512" fill="white"/>
</clipPath>
</defs>
</svg>
