<svg width="512" height="512" viewBox="0 0 512 512" fill="none" xmlns="http://www.w3.org/2000/svg">
<path d="M160 277.333C141.013 277.333 122.452 271.703 106.665 261.154C90.8781 250.606 78.5736 235.613 71.3076 218.071C64.0416 200.529 62.1404 181.227 65.8446 162.605C69.5488 143.983 78.6919 126.877 92.1178 113.451C105.544 100.025 122.649 90.8822 141.271 87.178C159.894 83.4738 179.196 85.3749 196.738 92.6409C214.279 99.907 229.272 112.212 239.821 127.999C250.37 143.786 256 162.346 256 181.333C255.972 206.785 245.848 231.187 227.851 249.184C209.854 267.182 185.452 277.305 160 277.333ZM298.667 512H21.3333C15.6754 512 10.2492 509.752 6.24839 505.752C2.24761 501.751 0 496.325 0 490.667V480C0 437.565 16.8571 396.869 46.8629 366.863C76.8687 336.857 117.565 320 160 320C202.435 320 243.131 336.857 273.137 366.863C303.143 396.869 320 437.565 320 480V490.667C320 496.325 317.752 501.751 313.752 505.752C309.751 509.752 304.325 512 298.667 512ZM373.333 192C354.346 192 335.786 186.37 319.999 175.821C304.211 165.273 291.907 150.279 284.641 132.738C277.375 115.196 275.474 95.8935 279.178 77.2714C282.882 58.6492 292.025 41.5436 305.451 28.1178C318.877 14.692 335.982 5.54884 354.605 1.84466C373.227 -1.85952 392.529 0.0415955 410.071 7.30761C427.613 14.5736 442.606 26.8782 453.154 42.6653C463.703 58.4524 469.333 77.013 469.333 96C469.305 121.452 459.182 145.854 441.184 163.851C423.187 181.848 398.785 191.972 373.333 192ZM343.019 235.115C323.149 237.78 304.045 244.521 286.901 254.913C269.758 265.306 254.946 279.126 243.392 295.509C291.198 317.219 328.76 356.57 348.224 405.333H490.667C496.325 405.333 501.751 403.086 505.752 399.085C509.752 395.084 512 389.658 512 384V383.189C511.978 361.924 507.42 340.909 498.63 321.546C489.84 302.182 477.02 284.917 461.027 270.903C445.033 256.888 426.234 246.446 405.884 240.275C385.535 234.104 364.102 232.344 343.019 235.115Z" fill="#06B6D4"/>
</svg>
