<svg width="427" height="512" viewBox="0 0 427 512" fill="none" xmlns="http://www.w3.org/2000/svg">
<path d="M426.667 448C426.667 483.349 398.016 512 362.667 512H106.667C47.7653 512 0 464.235 0 405.333V384H362.667C398.016 384 426.667 412.651 426.667 448ZM426.667 106.091V363.2C411.755 351.957 394.133 344.853 375.573 342.635C371.328 341.76 366.997 341.333 362.667 341.333H0V106.667C0 47.7653 47.7653 0 106.667 0H320.704C379.243 0 426.688 47.552 426.667 106.091ZM221.568 261.76C192.939 244.032 170.667 213.355 170.667 170.688C170.667 128.021 192.939 97.344 221.568 79.616C228.117 75.5627 225.472 65.4293 217.792 64.5973C211.541 63.9147 205.12 63.8293 198.528 64.448C145.472 69.504 103.701 117.483 106.667 170.688C103.701 223.893 145.493 271.872 198.528 276.928C205.12 277.547 211.541 277.483 217.792 276.779C225.451 275.925 228.117 265.813 221.568 261.76ZM320.555 154.624C320.555 151.701 318.187 149.333 315.264 149.333H281.216L271.637 112.683C270.976 110.165 268.715 108.416 266.112 108.416C263.509 108.416 261.248 110.165 260.587 112.683L250.987 149.333H216.704C213.781 149.333 211.413 151.701 211.413 154.624C211.413 156.544 212.459 158.315 214.123 159.232L241.621 174.528L230.976 207.808C230.251 210.069 231.04 212.523 232.939 213.952C234.944 215.467 237.717 215.445 239.701 213.909L266.112 193.493L292.501 213.888C294.443 215.381 297.152 215.467 299.157 214.059C301.184 212.629 302.059 210.048 301.269 207.68L290.517 175.019L317.888 159.189C319.531 158.251 320.555 156.501 320.555 154.624Z" fill="#0EA5E9"/>
</svg>
