<svg width="512" height="512" viewBox="0 0 512 512" fill="none" xmlns="http://www.w3.org/2000/svg">
<path d="M298.667 405.333V512H0V405.333C0 370.048 28.7147 341.333 64 341.333H234.667C269.952 341.333 298.667 370.048 298.667 405.333ZM149.333 298.667C196.395 298.667 234.667 260.395 234.667 213.333C234.667 166.272 196.395 128 149.333 128C102.272 128 64 166.272 64 213.333C64 260.395 102.272 298.667 149.333 298.667ZM512 64V384H339.179C329.877 338.368 291.2 303.723 243.904 299.605C264.683 276.843 277.333 246.571 277.333 213.333C277.333 142.635 220.032 85.3333 149.333 85.3333C134.379 85.3333 120.021 87.9147 106.667 92.6293V64C106.667 28.7147 135.381 0 170.667 0H448C483.285 0 512 28.7147 512 64ZM469.333 298.667H362.667V341.333H469.333V298.667Z" fill="#06B6D4"/>
</svg>
