<svg width="37" height="38" viewBox="0 0 37 38" fill="none" xmlns="http://www.w3.org/2000/svg">
<path d="M18.4302 28.2012C20.9499 25.9435 21.2742 23.2976 18.9205 21.7284C15.9784 23.3956 16.1625 25.7151 18.4302 28.2012Z" fill="#BBD540"/>
<path d="M18.9205 21.7284C21.2742 23.2976 20.9499 25.9435 18.4302 28.2012C16.1625 25.7151 15.9784 23.3956 18.9205 21.7284ZM18.9205 21.7284C17.8418 21.8265 18.136 21.4342 17.6457 21.14" stroke="white" stroke-width="0.196144"/>
<path d="M8.56872 23.633C11.9259 24.0517 14.1348 22.5594 13.7734 19.7537C10.5843 18.6288 8.95541 20.2903 8.56872 23.633Z" fill="#BBD540"/>
<path d="M13.7734 19.7537C14.1348 22.5594 11.9259 24.0517 8.56872 23.633C8.95541 20.2903 10.5843 18.6288 13.7734 19.7537ZM13.7734 19.7537C12.9913 19.0044 13.4804 18.9688 13.3804 18.4058" stroke="white" stroke-width="0.196144"/>
<path d="M4.90194 14.3287C7.1596 16.8484 9.80555 17.1727 11.3747 14.819C9.70747 11.8769 7.38797 12.061 4.90194 14.3287Z" fill="#BBD540"/>
<path d="M11.3747 14.819C9.80555 17.1727 7.1596 16.8484 4.90194 14.3287C7.38797 12.061 9.70747 11.8769 11.3747 14.819ZM11.3747 14.819C11.2766 13.7403 11.6689 14.0345 11.9631 13.5442" stroke="white" stroke-width="0.196144"/>
<path d="M8.86751 4.83643C8.80197 8.219 10.517 10.2598 13.2695 9.60716C14.0549 6.31799 12.2323 4.87164 8.86751 4.83643Z" fill="#BBD540"/>
<path d="M13.2695 9.60716C10.517 10.2598 8.80197 8.219 8.86751 4.83643C12.2323 4.87164 14.0549 6.31799 13.2695 9.60716ZM13.2695 9.60716C13.933 8.75101 14.0195 9.23368 14.569 9.07542" stroke="white" stroke-width="0.196144"/>
<path d="M18.6092 1.03519C16.0894 3.29285 15.7651 5.9388 18.1188 7.50795C21.0609 5.84072 20.8769 3.52122 18.6092 1.03519Z" fill="#BBD540"/>
<path d="M18.1188 7.50795C15.7651 5.9388 16.0894 3.29285 18.6092 1.03519C20.8769 3.52122 21.0609 5.84072 18.1188 7.50795ZM18.1188 7.50795C19.1975 7.40988 18.9033 7.80217 19.3936 8.09638" stroke="white" stroke-width="0.196144"/>
<path d="M27.9672 4.75559C24.5845 4.80964 22.6055 6.59568 23.355 9.3234C26.6699 9.99211 28.0509 8.11949 27.9672 4.75559Z" fill="#BBD540"/>
<path d="M23.355 9.3234C22.6055 6.59568 24.5845 4.80964 27.9672 4.75559C28.0509 8.11949 26.6699 9.99211 23.355 9.3234ZM23.355 9.3234C24.2341 9.95622 23.7548 10.0597 23.9324 10.6033" stroke="white" stroke-width="0.196144"/>
<path d="M31.964 14.3936C29.7064 11.8738 27.0604 11.5495 25.4913 13.9032C27.1585 16.8453 29.478 16.6613 31.964 14.3936Z" fill="#BBD540"/>
<path d="M25.4913 13.9032C27.0604 11.5495 29.7064 11.8738 31.964 14.3936C29.478 16.6613 27.1585 16.8453 25.4913 13.9032ZM25.4913 13.9032C25.5893 14.9819 25.197 14.6877 24.9028 15.1781" stroke="white" stroke-width="0.196144"/>
<path d="M28.0261 23.9222C28.1577 20.5415 26.4828 18.4676 23.7181 19.0664C22.8686 22.3396 24.6627 23.8213 28.0261 23.9222Z" fill="#BBD540"/>
<path d="M23.7181 19.0664C26.4828 18.4676 28.1577 20.5415 28.0261 23.9222C24.6627 23.8213 22.8686 22.3396 23.7181 19.0664ZM23.7181 19.0664C23.038 19.9095 22.961 19.4252 22.4085 19.5727" stroke="white" stroke-width="0.196144"/>
<path d="M30.9726 24.6981C23.2592 27.9695 20.5432 30.6799 18.5327 37.0352C29.7389 36.1099 36.9356 31.2779 36.5243 17.193C32.8097 25.8389 30.6703 28.6512 26.7575 29.8386C26.6615 29.4369 27.5463 28.3474 30.9726 24.6981Z" fill="#00AFF0" stroke="white" stroke-width="0.205618"/>
<path d="M6.10946 24.6981C13.8228 27.9695 16.5389 30.6799 18.5494 37.0352C7.34317 36.1099 0.146522 31.2779 0.557759 17.193C4.27238 25.8389 6.4118 28.6512 10.3246 29.8386C10.4206 29.4369 9.53578 28.3474 6.10946 24.6981Z" fill="#00AFF0" stroke="white" stroke-width="0.205618"/>
<path d="M22.7268 17.6118C23.1348 17.1259 23.4316 16.8248 23.8209 16.7019C24.4617 16.4996 24.4111 17.3152 24.047 17.9914C28.3196 10.7443 19.6835 5.0414 14.2196 9.12901C15.3561 9.52627 14.7199 10.3601 14.0858 11.1912C13.602 11.8253 13.1193 12.4578 13.4264 12.8936C13.8284 13.2707 14.6807 12.5481 15.5704 11.7937C16.4361 11.0597 17.3372 10.2957 17.8931 10.486C18.9759 10.8568 18.3069 12.0494 17.603 13.3041C16.9772 14.4197 16.3238 15.5843 16.8495 16.2641C17.4922 17.0953 18.3437 16.1858 19.2631 15.2038C20.1353 14.2722 21.0685 13.2754 21.9423 13.6377C22.6108 14.1687 21.8934 15.1635 21.1589 16.182C20.3797 17.2625 19.5812 18.3697 20.3978 18.9781C21.3571 19.2428 22.1026 18.355 22.7268 17.6118Z" fill="#00AFF0"/>
<path d="M14.2196 9.12901C7.08132 16.0015 17.1247 26.3711 23.5494 18.7637C23.73 18.5057 23.8957 18.2481 24.047 17.9914C24.4111 17.3152 24.4617 16.4996 23.8209 16.7019C23.4316 16.8248 23.1348 17.1259 22.7268 17.6118C22.1026 18.355 21.3571 19.2428 20.3978 18.9781C19.5812 18.3697 20.3797 17.2625 21.1589 16.182C21.8934 15.1635 22.6108 14.1687 21.9423 13.6377C21.0685 13.2754 20.1353 14.2722 19.2631 15.2038C18.3437 16.1858 17.4922 17.0953 16.8495 16.2641C16.3238 15.5843 16.9772 14.4197 17.603 13.3041C18.3069 12.0494 18.9759 10.8568 17.8931 10.486C17.3372 10.2957 16.4361 11.0597 15.5704 11.7937C14.6807 12.5481 13.8284 13.2707 13.4264 12.8936C13.1193 12.4578 13.602 11.8253 14.0858 11.1912C14.7199 10.3601 15.3561 9.52627 14.2196 9.12901Z" fill="url(#paint0_angular_134_1573)"/>
<defs>
<radialGradient id="paint0_angular_134_1573" cx="0" cy="0" r="1" gradientUnits="userSpaceOnUse" gradientTransform="translate(18.4779 14.5981) rotate(90) scale(6.83612 6.71696)">
<stop offset="0.07274" stop-color="#98FA1E"/>
<stop offset="0.609375" stop-color="#F1F1F1"/>
</radialGradient>
</defs>
</svg>
