<svg width="600" height="540" viewBox="0 0 600 540" fill="none" xmlns="http://www.w3.org/2000/svg">
<g clip-path="url(#clip0_2017_46215)">
<path d="M366.595 199.096C366.933 145.105 367.271 91.1149 367.496 37.2371C326.253 42.7601 284.897 48.3958 243.654 53.9188C251.88 104.528 256.5 155.7 257.289 206.986C293.687 196.503 331.775 192.22 366.595 199.096Z" fill="#B2D3EA"/>
<path d="M345.635 139.13C384.737 160.321 420.458 187.711 451.109 219.947C488.07 174.523 525.143 128.986 562.104 83.5618C531.567 40.8428 496.521 1.27982 457.645 -34C415.613 21.005 375.947 78.1515 345.635 139.13Z" fill="#00396F"/>
<path d="M76.4316 499.481L254.926 241.927L443.675 320.94L306.424 575L76.4316 499.481Z" fill="#1E1928" fill-opacity="0.08"/>
<path d="M479.056 236.966C488.521 273.486 500.691 314.852 514.101 349.794C514.89 351.936 517.144 353.063 519.397 352.612L722.119 305.159C722.796 305.046 723.472 304.708 723.922 304.37C726.063 302.792 725.162 300.312 724.148 298.396C705.78 262.214 684.37 227.611 660.255 194.923C659.015 193.233 657.663 191.429 655.635 190.64C653.268 189.626 650.677 190.189 648.197 190.753C593.545 203.603 538.554 211.267 484.014 227.836C480.295 229.076 478.042 233.021 479.056 236.966Z" fill="#FFB3AC"/>
<path d="M42 145C42 145 116.181 225.004 193.397 231.261L317 398L78.9955 328.517L42 145Z" fill="#E7634C"/>
</g>
<defs>
<clipPath id="clip0_2017_46215">
<rect width="600" height="540" fill="white"/>
</clipPath>
</defs>
</svg>
