<svg width="12" height="12" viewBox="0 0 12 12" fill="none" xmlns="http://www.w3.org/2000/svg">
<rect width="12" height="12" rx="3" fill="white"/>
<path d="M9.83267 4.06197C9.78747 3.89173 9.69834 3.73635 9.5742 3.6114C9.45007 3.48644 9.29527 3.39629 9.12533 3.34997C8.50167 3.18164 6 3.18164 6 3.18164C6 3.18164 3.49833 3.18164 2.87433 3.34997C2.70447 3.39637 2.54976 3.48655 2.42569 3.6115C2.30162 3.73645 2.21253 3.89179 2.16733 4.06197C2 4.68997 2 5.99997 2 5.99997C2 5.99997 2 7.30997 2.16733 7.93797C2.21253 8.10822 2.30166 8.2636 2.4258 8.38855C2.54994 8.51351 2.70473 8.60366 2.87467 8.64997C3.49833 8.81831 6 8.81831 6 8.81831C6 8.81831 8.50167 8.81831 9.12567 8.64997C9.29562 8.60369 9.45043 8.51355 9.57457 8.38859C9.69872 8.26363 9.78784 8.10823 9.833 7.93797C10 7.30997 10 5.99997 10 5.99997C10 5.99997 10 4.68997 9.83267 4.06197ZM5.18167 7.18931V4.81064L7.27267 5.99997L5.18167 7.18931Z" fill="#172554"/>
</svg>
